<svg width="254" height="231" viewBox="0 0 254 231" fill="none" xmlns="http://www.w3.org/2000/svg">
<path d="M147.183 1.21321C135.768 4.79421 128.244 16.0962 129.329 28.0112C130.095 36.4242 134.693 43.3562 141.117 47.4652C143.457 48.9622 144.496 51.8532 143.834 54.5512L134.331 93.2432C133.842 95.2332 132.549 96.9982 130.678 97.8342C129.539 98.3432 128.456 99.0752 127.487 100.049C124.594 102.958 123.683 107.441 125.233 111.24C128.019 118.069 136.574 120.004 142.024 115.088C145.032 112.375 146.169 108.017 144.91 104.167C144.491 102.887 143.872 101.775 143.111 100.83C141.876 99.2972 141.547 97.2202 142.016 95.3072L151.579 56.3712C152.239 53.6852 154.51 51.6602 157.266 51.4252C160.096 51.1842 162.974 50.4602 165.826 49.1162C176.046 44.3032 182.135 33.2382 180.496 22.0612C178.201 6.43021 162.526 -3.59979 147.183 1.21321Z" fill="url(#paint0_linear_220_5)"/>
<path d="M200.067 90.6302L184.28 93.7082C182.658 94.0242 181.052 93.1032 180.506 91.5432C177.24 82.2022 171.135 73.9342 163.011 68.1212C161.164 66.7972 158.558 67.2862 157.326 69.2422C156.201 71.0282 156.782 73.4362 158.494 74.6702C166.759 80.6292 172.512 89.6322 174.482 99.5852C174.487 99.6132 174.484 99.6402 174.49 99.6682C178.741 121.467 164.463 142.66 142.664 146.911C139.123 147.601 135.6 147.797 132.162 147.554C130.631 147.446 129.57 145.97 129.936 144.479L132.419 134.371C132.692 133.259 133.691 132.482 134.836 132.492C138.842 132.528 142.988 131.63 147.049 129.346C155.76 124.446 160.99 114.802 159.966 104.86C158.331 88.9822 142.578 78.5742 127.258 83.4382C116.179 86.9562 108.88 97.9302 109.904 109.51C110.707 118.586 116.11 125.917 123.44 129.705C124.45 130.227 124.963 131.371 124.692 132.475C124.057 135.062 122.933 139.638 122.211 142.576C121.846 144.063 120.227 144.877 118.824 144.262C107.129 139.129 98.0442 128.545 95.4202 115.087C92.7572 101.433 97.3802 87.9102 106.659 78.7102C106.682 78.6872 106.706 78.6652 106.73 78.6432C107.122 78.2562 107.523 77.8772 107.932 77.5062C111.877 73.9502 116.501 71.1882 121.498 69.4052C121.535 69.3922 121.573 69.3802 121.61 69.3672C122.142 69.1792 122.678 69.0052 123.218 68.8392C124.006 68.6002 124.818 68.4092 125.583 68.1132C126.627 67.7092 127.726 67.5362 128.845 67.5122C130.797 67.4702 132.321 66.0772 132.676 64.3222C132.776 63.8282 132.782 63.3052 132.681 62.7752C132.27 60.6332 130.096 59.3182 127.938 59.6362C126.202 59.8932 124.488 60.2552 122.799 60.6982C122.762 60.7062 122.726 60.7052 122.689 60.7142C122.376 60.7962 122.071 60.8942 121.761 60.9812C121.485 61.0602 121.209 61.1352 120.935 61.2192C120.254 61.4252 119.581 61.6472 118.915 61.8812C118.897 61.8872 118.878 61.8932 118.86 61.9002C112.718 64.0672 107.235 67.3972 102.615 71.5902C100.195 73.7682 97.9872 76.1932 96.0432 78.8412C95.9422 78.9782 95.8702 79.1262 95.7892 79.2722C87.1952 91.2782 84.0882 107.136 89.1762 122.596C96.2242 144.013 117.64 157.781 140.056 155.345C166.099 152.514 184.398 129.869 183.132 104.96C183.048 103.301 184.185 101.831 185.816 101.513L193.961 99.9252C195.926 99.5422 197.797 100.964 197.939 102.961C200.159 134.3 178.642 163.184 147.038 169.346C125.15 173.614 102.409 165.889 87.6392 149.182C86.3562 147.731 84.2262 147.222 82.5522 148.196C80.3052 149.503 79.9062 152.434 81.5302 154.282C98.1572 173.21 123.842 181.973 148.561 177.153C187.041 169.65 212.241 132.235 204.728 93.7542C204.309 91.6092 202.213 90.2112 200.067 90.6302ZM131.666 90.5102C140.965 88.6972 150.004 94.7872 151.818 104.086C153.631 113.385 147.542 122.425 138.243 124.238C128.944 126.051 119.904 119.961 118.091 110.662C116.277 101.364 122.367 92.3232 131.666 90.5102Z" fill="url(#paint1_linear_220_5)"/>
<path d="M186.393 181.571C185.269 179.574 182.722 178.946 180.806 180.148C171.798 185.812 161.908 189.722 151.411 191.769C104.878 200.843 59.6381 170.367 50.5641 123.834C45.2671 96.6692 53.5732 68.4482 72.3562 48.4212C73.7542 46.9312 76.1271 46.9392 77.5131 48.4412L82.8632 54.2412C84.1022 55.5842 84.1041 57.6522 82.8601 58.9912C81.9591 59.9612 81.0821 60.9582 80.2341 61.9832C80.1421 62.0932 80.0771 62.2152 80.0001 62.3322C66.7501 78.5552 61.1081 100.105 65.1791 120.985C65.5721 123 66.0412 124.965 66.5722 126.829C67.1092 128.711 68.8551 130.083 70.8031 129.893C73.3661 129.642 74.9521 127.174 74.2731 124.824C73.7821 123.124 73.3491 121.321 72.9871 119.463C68.9721 98.8752 75.5682 77.5362 90.2682 62.7722C90.2832 62.7572 90.2982 62.7422 90.3132 62.7272C91.2812 61.7572 92.2832 60.8162 93.3202 59.9052C99.7472 54.2572 107.26 49.9622 115.465 47.3112C117.811 46.5532 120.236 45.9242 122.678 45.4402C124.577 45.0642 126.087 43.4812 126.091 41.5462C126.096 38.9462 123.765 37.1232 121.349 37.5942C118.532 38.1432 115.729 38.8662 113.02 39.7412C106.013 42.0052 99.4502 45.3292 93.5312 49.5762C92.1012 50.6022 90.1291 50.3852 88.9351 49.0912L78.1432 37.3902C76.6732 35.7962 74.1961 35.6742 72.5751 37.1152C47.8591 59.1102 36.4341 92.9232 42.7581 125.357C52.6711 176.196 102.096 209.491 152.935 199.578C164.335 197.355 175.081 193.119 184.879 186.988C186.696 185.849 187.446 183.441 186.393 181.571Z" fill="url(#paint2_linear_220_5)"/>
<path d="M196.111 81.9862C194.383 82.3232 192.576 81.4742 191.772 79.8152C188.035 72.1012 182.839 65.3252 176.33 59.6742C174.672 58.2342 174.495 55.7222 175.935 54.0632C177.373 52.4052 179.885 52.2272 181.546 53.6672C188.872 60.0282 194.722 67.6582 198.932 76.3472C199.89 78.3242 199.064 80.7032 197.087 81.6612C196.77 81.8142 196.441 81.9222 196.111 81.9862Z" fill="url(#paint3_linear_220_5)"/>
<path d="M94.8632 117.225C89.7042 117.616 85.8882 121.546 85.2542 126.255C84.9702 128.362 83.8022 130.247 81.9912 131.361L46.7092 153.056C44.9462 154.14 42.6852 153.865 41.2022 152.421C35.0722 146.454 25.9242 143.806 16.9042 146.651C6.22418 150.019 -0.859824 160.588 0.084176 171.747C1.52818 188.817 19.8142 199.544 35.9422 191.129C45.3202 186.235 50.1462 175.542 48.1132 165.161L48.0852 165.016C47.7172 163.138 48.5372 161.271 50.1332 160.289L86.1562 138.139C87.9702 137.023 90.1832 136.833 92.1942 137.535C93.8772 138.122 95.7332 138.287 97.6102 137.921C103.669 136.74 107.478 130.547 105.574 124.483C104.143 119.93 99.6202 116.864 94.8632 117.225ZM27.1512 184.495C19.0372 186.077 11.1472 180.763 9.56518 172.648C7.98318 164.533 13.2972 156.645 21.4122 155.062C29.5262 153.48 37.4152 158.794 38.9982 166.909C40.5802 175.024 35.2662 182.913 27.1512 184.495Z" fill="url(#paint4_linear_220_5)"/>
<path d="M90.1721 33.6662C88.5611 33.9802 86.8581 33.2692 85.9801 31.7742C84.8681 29.8802 85.5031 27.4432 87.3971 26.3312C96.4511 21.0162 106.311 17.2782 116.702 15.2202C116.706 15.2192 116.71 15.2182 116.714 15.2182C118.865 14.7992 120.951 16.1982 121.377 18.3492C121.804 20.5042 120.403 22.5972 118.248 23.0232C108.734 24.9082 99.7091 28.3292 91.4241 33.1922C91.0251 33.4252 90.6021 33.5822 90.1721 33.6662Z" fill="url(#paint5_linear_220_5)"/>
<path d="M208.288 164.441C207.237 164.646 206.106 164.428 205.175 163.746C203.402 162.448 203.018 159.959 204.316 158.186C218.443 138.906 223.921 114.389 219.345 90.9222C215.601 71.7242 205.793 54.8611 190.979 42.1571C189.311 40.7271 189.118 38.2162 190.549 36.5492C191.977 34.8822 194.489 34.6882 196.157 36.1192C212.344 50.0012 223.063 68.4252 227.153 89.4002C232.152 115.038 226.168 141.824 210.733 162.888C210.119 163.728 209.235 164.257 208.288 164.441Z" fill="url(#paint6_linear_220_5)"/>
<path d="M219.093 172.226C215.718 172.62 212.566 173.565 209.703 174.953C207.078 176.225 203.916 175.526 201.927 173.392L192.514 163.293C191.127 161.805 190.44 159.769 190.755 157.759C190.926 156.667 190.925 155.509 190.711 154.3C190.015 150.375 187.051 147.1 183.2 146.069C176.151 144.183 169.425 149.738 169.999 157.066C170.324 161.216 173.232 164.843 177.199 166.105C178.552 166.536 179.894 166.678 181.179 166.582C183.249 166.428 185.278 167.197 186.693 168.716L196.11 178.819C198.101 180.955 198.572 184.16 197.117 186.692C193.332 193.279 192.084 201.369 194.417 209.42C198.26 222.684 211.24 231.551 224.992 230.285C242.905 228.637 254.901 211.647 250.801 194.425C247.416 180.205 233.614 170.533 219.093 172.226Z" fill="url(#paint7_linear_220_5)"/>
<path d="M253.713 84.2172C254.687 89.2122 251.427 94.0512 246.432 95.0252C241.437 95.9992 236.598 92.7392 235.624 87.7442C234.65 82.7492 237.91 77.9102 242.905 76.9362C247.9 75.9622 252.739 79.2222 253.713 84.2172Z" fill="url(#paint8_linear_220_5)"/>
<path d="M118.13 215.752C119.104 220.747 115.844 225.586 110.849 226.56C105.854 227.534 101.015 224.274 100.041 219.279C99.0672 214.284 102.327 209.445 107.322 208.471C112.317 207.497 117.156 210.757 118.13 215.752Z" fill="url(#paint9_linear_220_5)"/>
<path d="M222.427 216.486C230.859 216.486 237.694 209.651 237.694 201.219C237.694 192.787 230.859 185.952 222.427 185.952C213.995 185.952 207.16 192.787 207.16 201.219C207.16 209.651 213.995 216.486 222.427 216.486Z" fill="url(#paint10_linear_220_5)"/>
<path d="M67.4611 24.8212C68.4351 29.8162 65.1751 34.6552 60.1801 35.6292C55.1851 36.6032 50.3461 33.3432 49.3721 28.3482C48.3981 23.3532 51.6581 18.5142 56.6531 17.5402C61.6481 16.5662 66.4871 19.8262 67.4611 24.8212Z" fill="url(#paint11_linear_220_5)"/>
<defs>
<linearGradient id="paint0_linear_220_5" x1="284.208" y1="187.327" x2="80.5251" y2="-4.71486" gradientUnits="userSpaceOnUse">
<stop stop-color="#ED008C"/>
<stop offset="1" stop-color="#FD962F"/>
</linearGradient>
<linearGradient id="paint1_linear_220_5" x1="198.943" y1="183.1" x2="38.9367" y2="12.5429" gradientUnits="userSpaceOnUse">
<stop stop-color="#008AF1"/>
<stop offset="1" stop-color="#40FFFF"/>
</linearGradient>
<linearGradient id="paint2_linear_220_5" x1="182.918" y1="198.133" x2="22.9133" y2="27.5768" gradientUnits="userSpaceOnUse">
<stop stop-color="#008AF1"/>
<stop offset="1" stop-color="#40FFFF"/>
</linearGradient>
<linearGradient id="paint3_linear_220_5" x1="250.543" y1="134.693" x2="90.5375" y2="-35.8635" gradientUnits="userSpaceOnUse">
<stop stop-color="#008AF1"/>
<stop offset="1" stop-color="#40FFFF"/>
</linearGradient>
<linearGradient id="paint4_linear_220_5" x1="193.202" y1="283.855" x2="-10.4869" y2="91.8082" gradientUnits="userSpaceOnUse">
<stop stop-color="#ED008C"/>
<stop offset="1" stop-color="#FD962F"/>
</linearGradient>
<linearGradient id="paint5_linear_220_5" x1="227.318" y1="156.485" x2="67.3103" y2="-14.0744" gradientUnits="userSpaceOnUse">
<stop stop-color="#008AF1"/>
<stop offset="1" stop-color="#40FFFF"/>
</linearGradient>
<linearGradient id="paint6_linear_220_5" x1="241.54" y1="143.138" x2="81.5359" y2="-27.4169" gradientUnits="userSpaceOnUse">
<stop stop-color="#008AF1"/>
<stop offset="1" stop-color="#40FFFF"/>
</linearGradient>
<linearGradient id="paint7_linear_220_5" x1="248.187" y1="225.533" x2="44.502" y2="33.4888" gradientUnits="userSpaceOnUse">
<stop stop-color="#ED008C"/>
<stop offset="1" stop-color="#FD962F"/>
</linearGradient>
<linearGradient id="paint8_linear_220_5" x1="316.188" y1="153.412" x2="112.503" y2="-38.6321" gradientUnits="userSpaceOnUse">
<stop stop-color="#ED008C"/>
<stop offset="1" stop-color="#FD962F"/>
</linearGradient>
<linearGradient id="paint9_linear_220_5" x1="186.949" y1="290.928" x2="-16.7367" y2="98.8846" gradientUnits="userSpaceOnUse">
<stop stop-color="#ED008C"/>
<stop offset="1" stop-color="#FD962F"/>
</linearGradient>
<linearGradient id="paint10_linear_220_5" x1="248.858" y1="227.606" x2="213.527" y2="192.334" gradientUnits="userSpaceOnUse">
<stop stop-color="#ED008C"/>
<stop offset="1" stop-color="#FD962F"/>
</linearGradient>
<linearGradient id="paint11_linear_220_5" x1="258.182" y1="214.933" x2="54.4971" y2="22.8889" gradientUnits="userSpaceOnUse">
<stop stop-color="#ED008C"/>
<stop offset="1" stop-color="#FD962F"/>
</linearGradient>
</defs>
</svg>
