<svg width="316" height="86" viewBox="0 0 316 86" fill="none" xmlns="http://www.w3.org/2000/svg">
<path d="M73.3762 28.75C73.3762 30.959 71.5852 32.75 69.3762 32.75H44.6262C42.4172 32.75 40.6262 30.959 40.6262 28.75V4C40.6262 1.791 42.4172 0 44.6262 0H69.3762C71.5852 0 73.3762 1.791 73.3762 4V28.75Z" fill="black"/>
<path d="M73.2512 81.125C73.2512 83.334 71.4602 85.125 69.2512 85.125H44.5012C42.2922 85.125 40.5012 83.334 40.5012 81.125V56.375C40.5012 54.166 42.2922 52.375 44.5012 52.375H69.2512C71.4602 52.375 73.2512 54.166 73.2512 56.375V81.125Z" fill="black"/>
<path d="M43.8762 29.5L70.1262 56.25" stroke="black" stroke-width="4" stroke-miterlimit="10" stroke-linecap="square"/>
<path d="M21.5012 29.616L34.7592 42.875L21.5012 56.132L8.24323 42.875L21.5012 29.616ZM21.5012 21.373C20.4782 21.373 19.4532 21.764 18.6732 22.545L1.17225 40.047C-0.39075 41.608 -0.39075 44.141 1.17225 45.703L18.6732 63.203C19.4532 63.984 20.4782 64.375 21.5012 64.375C22.5242 64.375 23.5492 63.984 24.3292 63.203L41.8302 45.703C43.3932 44.14 43.3932 41.607 41.8302 40.047L24.3292 22.545C23.5492 21.764 22.5242 21.373 21.5012 21.373Z" fill="black"/>
<path d="M96.5012 29.116L109.759 42.375L96.5012 55.632L83.2432 42.375L96.5012 29.116ZM96.5012 20.873C95.4782 20.873 94.4532 21.264 93.6732 22.045L76.1723 39.547C74.6093 41.108 74.6093 43.641 76.1723 45.203L93.6732 62.703C94.4532 63.484 95.4782 63.875 96.5012 63.875C97.5242 63.875 98.5492 63.484 99.3292 62.703L116.83 45.203C118.393 43.64 118.393 41.107 116.83 39.547L99.3292 22.045C98.5492 21.264 97.5242 20.873 96.5012 20.873Z" fill="black"/>
<path d="M140.112 37.288C138.976 37.288 137.92 37.08 136.944 36.664C135.984 36.248 135.152 35.672 134.448 34.936C133.76 34.184 133.256 33.312 132.936 32.32L135.648 31.144C136.08 32.168 136.704 32.976 137.52 33.568C138.336 34.144 139.256 34.432 140.28 34.432C140.856 34.432 141.352 34.344 141.768 34.168C142.2 33.976 142.528 33.72 142.752 33.4C142.992 33.08 143.112 32.696 143.112 32.248C143.112 31.72 142.952 31.288 142.632 30.952C142.328 30.6 141.864 30.328 141.24 30.136L137.808 29.032C136.416 28.6 135.368 27.952 134.664 27.088C133.96 26.224 133.608 25.208 133.608 24.04C133.608 23.016 133.856 22.112 134.352 21.328C134.864 20.544 135.568 19.936 136.464 19.504C137.376 19.056 138.416 18.832 139.584 18.832C140.656 18.832 141.64 19.024 142.536 19.408C143.432 19.776 144.2 20.296 144.84 20.968C145.496 21.624 145.984 22.4 146.304 23.296L143.616 24.496C143.264 23.6 142.736 22.912 142.032 22.432C141.328 21.936 140.512 21.688 139.584 21.688C139.04 21.688 138.56 21.784 138.144 21.976C137.728 22.152 137.4 22.408 137.16 22.744C136.936 23.064 136.824 23.448 136.824 23.896C136.824 24.392 136.984 24.832 137.304 25.216C137.624 25.584 138.112 25.872 138.768 26.08L142.056 27.112C143.48 27.576 144.544 28.216 145.248 29.032C145.968 29.848 146.328 30.856 146.328 32.056C146.328 33.08 146.064 33.984 145.536 34.768C145.008 35.552 144.28 36.168 143.352 36.616C142.424 37.064 141.344 37.288 140.112 37.288ZM149.267 37V19.12H152.531V37H149.267ZM155.97 37V19.12H159.09L165.786 28.216H164.298L170.85 19.12H173.97V37H170.682V22.84L171.954 23.152L165.162 32.2H164.778L158.154 23.152L159.234 22.84V37H155.97ZM177.392 37V19.12H184.064C185.28 19.12 186.352 19.344 187.28 19.792C188.224 20.224 188.96 20.864 189.488 21.712C190.016 22.544 190.28 23.56 190.28 24.76C190.28 25.944 190.008 26.96 189.464 27.808C188.936 28.64 188.208 29.28 187.28 29.728C186.352 30.176 185.28 30.4 184.064 30.4H180.656V37H177.392ZM180.656 27.52H184.112C184.704 27.52 185.216 27.408 185.648 27.184C186.08 26.944 186.416 26.616 186.656 26.2C186.896 25.784 187.016 25.304 187.016 24.76C187.016 24.2 186.896 23.72 186.656 23.32C186.416 22.904 186.08 22.584 185.648 22.36C185.216 22.12 184.704 22 184.112 22H180.656V27.52ZM201.763 37.288C200.451 37.288 199.227 37.056 198.091 36.592C196.955 36.128 195.963 35.48 195.115 34.648C194.267 33.816 193.603 32.84 193.123 31.72C192.659 30.584 192.427 29.36 192.427 28.048C192.427 26.72 192.659 25.496 193.123 24.376C193.587 23.256 194.243 22.28 195.091 21.448C195.939 20.616 196.931 19.976 198.067 19.528C199.203 19.064 200.435 18.832 201.763 18.832C203.091 18.832 204.323 19.064 205.459 19.528C206.595 19.992 207.587 20.64 208.435 21.472C209.283 22.288 209.939 23.256 210.403 24.376C210.883 25.496 211.123 26.72 211.123 28.048C211.123 29.36 210.883 30.584 210.403 31.72C209.923 32.84 209.259 33.816 208.411 34.648C207.563 35.48 206.571 36.128 205.435 36.592C204.315 37.056 203.091 37.288 201.763 37.288ZM201.763 34.312C202.643 34.312 203.451 34.16 204.187 33.856C204.923 33.536 205.563 33.096 206.107 32.536C206.667 31.976 207.091 31.312 207.379 30.544C207.683 29.776 207.835 28.944 207.835 28.048C207.835 27.152 207.683 26.328 207.379 25.576C207.091 24.808 206.667 24.144 206.107 23.584C205.563 23.008 204.923 22.568 204.187 22.264C203.451 21.96 202.643 21.808 201.763 21.808C200.899 21.808 200.099 21.96 199.363 22.264C198.627 22.568 197.979 23.008 197.419 23.584C196.875 24.144 196.451 24.808 196.147 25.576C195.843 26.328 195.691 27.152 195.691 28.048C195.691 28.944 195.843 29.776 196.147 30.544C196.451 31.312 196.875 31.976 197.419 32.536C197.979 33.096 198.627 33.536 199.363 33.856C200.099 34.16 200.899 34.312 201.763 34.312ZM214.025 37V19.12H216.569L226.409 32.368L225.089 32.632V19.12H228.353V37H225.785L216.089 23.656L217.289 23.392V37H214.025ZM231.814 37V19.12H235.078V37H231.814ZM142.536 67.288C141.224 67.288 140 67.056 138.864 66.592C137.728 66.128 136.736 65.48 135.888 64.648C135.04 63.816 134.376 62.84 133.896 61.72C133.432 60.584 133.2 59.36 133.2 58.048C133.2 56.72 133.432 55.496 133.896 54.376C134.36 53.256 135.016 52.28 135.864 51.448C136.712 50.616 137.704 49.976 138.84 49.528C139.976 49.064 141.208 48.832 142.536 48.832C143.864 48.832 145.096 49.064 146.232 49.528C147.368 49.992 148.36 50.64 149.208 51.472C150.056 52.288 150.712 53.256 151.176 54.376C151.656 55.496 151.896 56.72 151.896 58.048C151.896 59.36 151.656 60.584 151.176 61.72C150.696 62.84 150.032 63.816 149.184 64.648C148.336 65.48 147.344 66.128 146.208 66.592C145.088 67.056 143.864 67.288 142.536 67.288ZM142.536 64.312C143.416 64.312 144.224 64.16 144.96 63.856C145.696 63.536 146.336 63.096 146.88 62.536C147.44 61.976 147.864 61.312 148.152 60.544C148.456 59.776 148.608 58.944 148.608 58.048C148.608 57.152 148.456 56.328 148.152 55.576C147.864 54.808 147.44 54.144 146.88 53.584C146.336 53.008 145.696 52.568 144.96 52.264C144.224 51.96 143.416 51.808 142.536 51.808C141.672 51.808 140.872 51.96 140.136 52.264C139.4 52.568 138.752 53.008 138.192 53.584C137.648 54.144 137.224 54.808 136.92 55.576C136.616 56.328 136.464 57.152 136.464 58.048C136.464 58.944 136.616 59.776 136.92 60.544C137.224 61.312 137.648 61.976 138.192 62.536C138.752 63.096 139.4 63.536 140.136 63.856C140.872 64.16 141.672 64.312 142.536 64.312ZM154.798 67V49.12H157.918L164.614 58.216H163.126L169.678 49.12H172.798V67H169.51V52.84L170.782 53.152L163.99 62.2H163.606L156.982 53.152L158.062 52.84V67H154.798ZM176.22 67V49.12H178.764L188.604 62.368L187.284 62.632V49.12H190.548V67H187.98L178.284 53.656L179.484 53.392V67H176.22ZM194.009 67V49.12H197.273V67H194.009ZM209.112 67.288C207.832 67.288 206.648 67.056 205.56 66.592C204.488 66.128 203.544 65.48 202.728 64.648C201.928 63.816 201.304 62.84 200.856 61.72C200.408 60.6 200.184 59.376 200.184 58.048C200.184 56.72 200.4 55.496 200.832 54.376C201.28 53.24 201.904 52.264 202.704 51.448C203.52 50.616 204.472 49.976 205.56 49.528C206.648 49.064 207.832 48.832 209.112 48.832C210.392 48.832 211.536 49.048 212.544 49.48C213.568 49.912 214.432 50.488 215.136 51.208C215.84 51.912 216.344 52.688 216.648 53.536L213.72 54.904C213.384 54.008 212.816 53.272 212.016 52.696C211.216 52.104 210.248 51.808 209.112 51.808C207.992 51.808 207 52.072 206.136 52.6C205.288 53.128 204.624 53.856 204.144 54.784C203.68 55.712 203.448 56.8 203.448 58.048C203.448 59.296 203.68 60.392 204.144 61.336C204.624 62.264 205.288 62.992 206.136 63.52C207 64.048 207.992 64.312 209.112 64.312C210.248 64.312 211.216 64.024 212.016 63.448C212.816 62.856 213.384 62.112 213.72 61.216L216.648 62.584C216.344 63.432 215.84 64.216 215.136 64.936C214.432 65.64 213.568 66.208 212.544 66.64C211.536 67.072 210.392 67.288 209.112 67.288ZM219.298 67V49.12H222.562V56.92H230.17V49.12H233.458V67H230.17V59.8H222.562V67H219.298ZM235.436 67L241.604 49.12H245.828L251.996 67H248.444L247.172 63.16H240.26L238.964 67H235.436ZM241.196 60.28H246.236L243.26 51.376H244.172L241.196 60.28ZM253.986 67V49.12H256.53L266.37 62.368L265.05 62.632V49.12H268.314V67H265.746L256.05 53.656L257.25 53.392V67H253.986ZM271.775 67V49.12H274.319L284.159 62.368L282.839 62.632V49.12H286.103V67H283.535L273.839 53.656L275.039 53.392V67H271.775ZM289.564 67V49.12H301.444V52H292.828V56.584H300.964V59.464H292.828V64.12H301.444V67H289.564ZM303.837 67V49.12H307.101V64.12H314.757V67H303.837Z" fill="black"/>
</svg>
